<svg xmlns="http://www.w3.org/2000/svg" version="1.1" xmlns:xlink="http://www.w3.org/1999/xlink" xmlns:svgjs="http://svgjs.com/svgjs" width="1440" height="560" preserveAspectRatio="none" viewBox="0 0 1440 560"><g mask="url(&quot;#SvgjsMask1000&quot;)" fill="none"><rect width="1440" height="560" x="0" y="0" fill="#0e2a47"></rect><path d="M489.61 420.46L487.63 407.81 499.53 403.1 497.55 390.44 509.45 385.73 507.47 373.08 519.38 368.36" stroke="#e73635" stroke-width="1" stroke-dasharray="3, 2"></path><rect width="96" height="96" clip-path="url(&quot;#SvgjsClipPath1001&quot;)" x="1310.77" y="-7.43" fill="url(#SvgjsPattern1002)" transform="rotate(39.74, 1358.77, 40.57)"></rect><path d="M343.36 1.67a5.6 5.6 0 1 0-5.3 9.86 5.6 5.6 0 1 0 5.3-9.86zM335.79 15.76a5.6 5.6 0 1 0-5.31 9.87 5.6 5.6 0 1 0 5.31-9.87zM328.21 29.86a5.6 5.6 0 1 0-5.3 9.86 5.6 5.6 0 1 0 5.3-9.86zM320.64 43.95a5.6 5.6 0 1 0-5.3 9.87 5.6 5.6 0 1 0 5.3-9.87zM344.41-34.09a5.6 5.6 0 1 0-5.3 9.86 5.6 5.6 0 1 0 5.3-9.86zM336.84-20a5.6 5.6 0 1 0-5.3 9.87 5.6 5.6 0 1 0 5.3-9.87zM329.26-5.9a5.6 5.6 0 1 0-5.3 9.86 5.6 5.6 0 1 0 5.3-9.86zM321.69 8.19a5.6 5.6 0 1 0-5.3 9.87 5.6 5.6 0 1 0 5.3-9.87z" stroke="#d3b714" stroke-width="1" stroke-dasharray="3, 2"></path><path d="M655.65 370.85a5.6 5.6 0 1 0 4.78 10.13 5.6 5.6 0 1 0-4.78-10.13zM662.48 385.32a5.6 5.6 0 1 0 4.78 10.13 5.6 5.6 0 1 0-4.78-10.13zM669.31 399.79a5.6 5.6 0 1 0 4.78 10.13 5.6 5.6 0 1 0-4.78-10.13zM676.13 414.26a5.6 5.6 0 1 0 4.78 10.13 5.6 5.6 0 1 0-4.78-10.13zM627.53 348.74a5.6 5.6 0 1 0 4.78 10.13 5.6 5.6 0 1 0-4.78-10.13zM634.35 363.21a5.6 5.6 0 1 0 4.78 10.13 5.6 5.6 0 1 0-4.78-10.13zM641.18 377.68a5.6 5.6 0 1 0 4.78 10.13 5.6 5.6 0 1 0-4.78-10.13zM648.01 392.15a5.6 5.6 0 1 0 4.78 10.13 5.6 5.6 0 1 0-4.78-10.13z" stroke="#e73635" stroke-width="1" stroke-dasharray="3, 3"></path><path d="M634.14 505.02 L681.4300000000001 479.14L678.3302257896344 512.6252257896343z" stroke="#037b0b" stroke-width="1.84" stroke-dasharray="3, 3"></path><rect width="60" height="60" clip-path="url(&quot;#SvgjsClipPath1003&quot;)" x="907.12" y="431.31" fill="url(#SvgjsPattern1004)" transform="rotate(142.33, 937.12, 461.31)"></rect><path d="M230.3 242.97a5.6 5.6 0 1 0-10.58 3.67 5.6 5.6 0 1 0 10.58-3.67zM215.18 248.22a5.6 5.6 0 1 0-10.58 3.67 5.6 5.6 0 1 0 10.58-3.67zM200.07 253.46a5.6 5.6 0 1 0-10.58 3.68 5.6 5.6 0 1 0 10.58-3.68zM184.96 258.71a5.6 5.6 0 1 0-10.58 3.68 5.6 5.6 0 1 0 10.58-3.68z" fill="#037b0b"></path><rect width="348" height="348" clip-path="url(&quot;#SvgjsClipPath1005&quot;)" x="29.87" y="-113.51" fill="url(#SvgjsPattern1006)" transform="rotate(38.71, 203.87, 60.49)"></rect><circle r="46.666666666666664" cx="1176.68" cy="425.35" fill="#037b0b"></circle><rect width="314.64" height="314.64" clip-path="url(&quot;#SvgjsClipPath1007&quot;)" x="517.11" y="352.97" fill="url(#SvgjsPattern1008)" transform="rotate(195.57, 674.43, 510.29)"></rect><rect width="120" height="120" clip-path="url(&quot;#SvgjsClipPath1009&quot;)" x="1269.41" y="31.57" fill="url(#SvgjsPattern1010)" transform="rotate(257.41, 1329.41, 91.57)"></rect><rect width="156" height="156" clip-path="url(&quot;#SvgjsClipPath1011&quot;)" x="248.22" y="19.11" fill="url(#SvgjsPattern1012)" transform="rotate(137.07, 326.22, 97.11)"></rect></g><defs><mask id="SvgjsMask1000"><rect width="1440" height="560" fill="#ffffff"></rect></mask><pattern x="0" y="0" width="96" height="6" patternUnits="userSpaceOnUse" id="SvgjsPattern1002"><rect width="96" height="3" x="0" y="0" fill="#037b0b"></rect><rect width="96" height="3" x="0" y="3" fill="rgba(0, 0, 0, 0)"></rect></pattern><clipPath id="SvgjsClipPath1001"><circle r="24" cx="1358.77" cy="40.57"></circle></clipPath><pattern x="0" y="0" width="60" height="6" patternUnits="userSpaceOnUse" id="SvgjsPattern1004"><rect width="60" height="3" x="0" y="0" fill="#e73635"></rect><rect width="60" height="3" x="0" y="3" fill="rgba(0, 0, 0, 0)"></rect></pattern><clipPath id="SvgjsClipPath1003"><circle r="15" cx="937.12" cy="461.31"></circle></clipPath><pattern x="0" y="0" width="6" height="6" patternUnits="userSpaceOnUse" id="SvgjsPattern1006"><path d="M3 1L3 5M1 3L5 3" stroke="#e73635" fill="none" stroke-width="1"></path></pattern><clipPath id="SvgjsClipPath1005"><circle r="87" cx="203.87" cy="60.49"></circle></clipPath><pattern x="0" y="0" width="314.64" height="8.74" patternUnits="userSpaceOnUse" id="SvgjsPattern1008"><rect width="314.64" height="4.37" x="0" y="0" fill="#037b0b"></rect><rect width="314.64" height="4.37" x="0" y="4.37" fill="rgba(0, 0, 0, 0)"></rect></pattern><clipPath id="SvgjsClipPath1007"><circle r="78.66" cx="674.43" cy="510.29"></circle></clipPath><pattern x="0" y="0" width="6" height="6" patternUnits="userSpaceOnUse" id="SvgjsPattern1010"><path d="M3 1L3 5M1 3L5 3" stroke="#d3b714" fill="none" stroke-width="1.27"></path></pattern><clipPath id="SvgjsClipPath1009"><circle r="30" cx="1329.41" cy="91.57"></circle></clipPath><pattern x="0" y="0" width="6" height="6" patternUnits="userSpaceOnUse" id="SvgjsPattern1012"><path d="M3 1L3 5M1 3L5 3" stroke="#d3b714" fill="none" stroke-width="1.06"></path></pattern><clipPath id="SvgjsClipPath1011"><circle r="39" cx="326.22" cy="97.11"></circle></clipPath></defs></svg>